NotoSansPalmyrene-Regular.ufo
<glyph name="u10865" format="2">
  <advance width="522"/>
  <unicode hex="10865"/>
  <outline>
    <contour>
      <point x="423" y="-8" type="curve" smooth="yes"/>
      <point x="455" y="-8"/>
      <point x="465" y="7"/>
      <point x="465" y="24" type="curve" smooth="yes"/>
      <point x="465" y="34"/>
      <point x="461" y="58"/>
      <point x="457" y="82" type="curve" smooth="yes"/>
      <point x="388" y="480" type="line" smooth="yes"/>
      <point x="369" y="590"/>
      <point x="322" y="650"/>
      <point x="181" y="650" type="curve" smooth="yes"/>
      <point x="46" y="650"/>
      <point x="0" y="594"/>
      <point x="0" y="527" type="curve" smooth="yes"/>
      <point x="0" y="463"/>
      <point x="27" y="427"/>
      <point x="58" y="427" type="curve" smooth="yes"/>
      <point x="75" y="427"/>
      <point x="96" y="439"/>
      <point x="96" y="459" type="curve" smooth="yes"/>
      <point x="96" y="468"/>
      <point x="93" y="478"/>
      <point x="89" y="489" type="curve" smooth="yes"/>
      <point x="86" y="498"/>
      <point x="84" y="507"/>
      <point x="84" y="521" type="curve" smooth="yes"/>
      <point x="84" y="547"/>
      <point x="99" y="574"/>
      <point x="184" y="574" type="curve" smooth="yes"/>
      <point x="267" y="574"/>
      <point x="291" y="533"/>
      <point x="303" y="462" type="curve" smooth="yes"/>
      <point x="377" y="32" type="line" smooth="yes"/>
      <point x="383" y="0"/>
      <point x="395" y="-8"/>
    </contour>
  </outline>
</glyph>
<glyph name="u10868" format="2">
  <advance width="491"/>
  <unicode hex="10868"/>
  <outline>
    <contour>
      <point x="247" y="-15" type="curve" smooth="yes"/>
      <point x="368" y="-15"/>
      <point x="451" y="59"/>
      <point x="451" y="170" type="curve" smooth="yes"/>
      <point x="451" y="263"/>
      <point x="387" y="341"/>
      <point x="277" y="341" type="curve" smooth="yes"/>
      <point x="234" y="341"/>
      <point x="218" y="329"/>
      <point x="218" y="296" type="curve" smooth="yes"/>
      <point x="218" y="271"/>
      <point x="227" y="264"/>
      <point x="241" y="264" type="curve" smooth="yes"/>
      <point x="246" y="264"/>
      <point x="249" y="264"/>
      <point x="256" y="265" type="curve" smooth="yes"/>
      <point x="263" y="266"/>
      <point x="266" y="266"/>
      <point x="272" y="266" type="curve" smooth="yes"/>
      <point x="350" y="266"/>
      <point x="363" y="202"/>
      <point x="363" y="170" type="curve" smooth="yes"/>
      <point x="363" y="91"/>
      <point x="309" y="61"/>
      <point x="249" y="61" type="curve" smooth="yes"/>
      <point x="169" y="61"/>
      <point x="128" y="122"/>
      <point x="128" y="202" type="curve" smooth="yes"/>
      <point x="128" y="348"/>
      <point x="233" y="489"/>
      <point x="338" y="562" type="curve" smooth="yes"/>
      <point x="358" y="576"/>
      <point x="365" y="584"/>
      <point x="365" y="600" type="curve" smooth="yes"/>
      <point x="365" y="624"/>
      <point x="349" y="646"/>
      <point x="327" y="646" type="curve" smooth="yes"/>
      <point x="310" y="646"/>
      <point x="293" y="634"/>
      <point x="273" y="619" type="curve" smooth="yes"/>
      <point x="187" y="554"/>
      <point x="40" y="392"/>
      <point x="40" y="206" type="curve" smooth="yes"/>
      <point x="40" y="70"/>
      <point x="115" y="-15"/>
    </contour>
  </outline>
</glyph>
<glyph name="u10869" format="2">
  <advance width="585"/>
  <unicode hex="10869"/>
  <outline>
    <contour>
      <point x="487" y="300" type="curve" smooth="yes"/>
      <point x="506" y="300"/>
      <point x="528" y="317"/>
      <point x="528" y="332" type="curve" smooth="yes"/>
      <point x="528" y="346"/>
      <point x="515" y="368"/>
      <point x="502" y="389" type="curve" smooth="yes"/>
      <point x="463" y="452"/>
      <point x="372" y="589"/>
      <point x="261" y="589" type="curve" smooth="yes"/>
      <point x="159" y="589"/>
      <point x="43" y="437"/>
      <point x="10" y="381" type="curve" smooth="yes"/>
      <point x="4" y="371"/>
      <point x="0" y="362"/>
      <point x="0" y="351" type="curve" smooth="yes"/>
      <point x="0" y="336"/>
      <point x="19" y="323"/>
      <point x="41" y="323" type="curve" smooth="yes"/>
      <point x="60" y="323"/>
      <point x="72" y="336"/>
      <point x="95" y="365" type="curve" smooth="yes"/>
      <point x="121" y="398"/>
      <point x="211" y="512"/>
      <point x="265" y="512" type="curve" smooth="yes"/>
      <point x="319" y="512"/>
      <point x="384" y="421"/>
      <point x="431" y="349" type="curve" smooth="yes"/>
      <point x="456" y="311"/>
      <point x="467" y="300"/>
    </contour>
  </outline>
</glyph>
<glyph name="u1086A" format="2">
  <advance width="599"/>
  <unicode hex="1086A"/>
  <outline>
    <contour>
      <point x="284" y="-8" type="curve" smooth="yes"/>
      <point x="478" y="-8"/>
      <point x="539" y="93"/>
      <point x="539" y="214" type="curve" smooth="yes"/>
      <point x="539" y="260"/>
      <point x="530" y="324"/>
      <point x="517" y="394" type="curve" smooth="yes"/>
      <point x="502" y="476"/>
      <point x="492" y="545"/>
      <point x="484" y="609" type="curve" smooth="yes"/>
      <point x="481" y="633"/>
      <point x="472" y="640"/>
      <point x="434" y="640" type="curve" smooth="yes"/>
      <point x="412" y="640"/>
      <point x="394" y="632"/>
      <point x="394" y="612" type="curve" smooth="yes"/>
      <point x="394" y="604"/>
      <point x="395" y="596"/>
      <point x="398" y="577" type="curve"/>
      <point x="392" y="508"/>
      <point x="344" y="472"/>
      <point x="285" y="472" type="curve" smooth="yes"/>
      <point x="197" y="472"/>
      <point x="157" y="552"/>
      <point x="148" y="608" type="curve" smooth="yes"/>
      <point x="144" y="633"/>
      <point x="131" y="640"/>
      <point x="100" y="640" type="curve" smooth="yes"/>
      <point x="71" y="640"/>
      <point x="59" y="629"/>
      <point x="59" y="609" type="curve" smooth="yes"/>
      <point x="59" y="523"/>
      <point x="140" y="398"/>
      <point x="283" y="398" type="curve" smooth="yes"/>
      <point x="339" y="398"/>
      <point x="387" y="416"/>
      <point x="419" y="450" type="curve"/>
      <point x="435" y="360"/>
      <point x="451" y="260"/>
      <point x="451" y="208" type="curve" smooth="yes"/>
      <point x="451" y="114"/>
      <point x="388" y="68"/>
      <point x="288" y="68" type="curve" smooth="yes"/>
      <point x="201" y="68"/>
      <point x="128" y="97"/>
      <point x="85" y="125" type="curve" smooth="yes"/>
      <point x="70" y="135"/>
      <point x="64" y="138"/>
      <point x="55" y="138" type="curve" smooth="yes"/>
      <point x="37" y="138"/>
      <point x="20" y="116"/>
      <point x="20" y="94" type="curve" smooth="yes"/>
      <point x="20" y="80"/>
      <point x="23" y="71"/>
      <point x="41" y="56" type="curve" smooth="yes"/>
      <point x="83" y="22"/>
      <point x="180" y="-8"/>
    </contour>
  </outline>
</glyph>
<glyph name="u1086E" format="2">
  <advance width="427"/>
  <unicode hex="1086E"/>
  <outline>
    <contour>
      <point x="194" y="-35" type="curve" smooth="yes"/>
      <point x="294" y="-35"/>
      <point x="367" y="14"/>
      <point x="367" y="144" type="curve" smooth="yes"/>
      <point x="367" y="228"/>
      <point x="347" y="288"/>
      <point x="324" y="354" type="curve" smooth="yes"/>
      <point x="299" y="425"/>
      <point x="273" y="502"/>
      <point x="273" y="609" type="curve" smooth="yes"/>
      <point x="273" y="632"/>
      <point x="258" y="640"/>
      <point x="234" y="640" type="curve" smooth="yes"/>
      <point x="195" y="640"/>
      <point x="185" y="624"/>
      <point x="185" y="591" type="curve" smooth="yes"/>
      <point x="185" y="492"/>
      <point x="211" y="415"/>
      <point x="236" y="344" type="curve" smooth="yes"/>
      <point x="261" y="272"/>
      <point x="279" y="218"/>
      <point x="279" y="144" type="curve" smooth="yes"/>
      <point x="279" y="59"/>
      <point x="236" y="41"/>
      <point x="190" y="41" type="curve" smooth="yes"/>
      <point x="138" y="41"/>
      <point x="97" y="64"/>
      <point x="76" y="76" type="curve" smooth="yes"/>
      <point x="68" y="80"/>
      <point x="60" y="82"/>
      <point x="54" y="82" type="curve" smooth="yes"/>
      <point x="34" y="82"/>
      <point x="20" y="54"/>
      <point x="20" y="34" type="curve" smooth="yes"/>
      <point x="20" y="26"/>
      <point x="23" y="20"/>
      <point x="27" y="15" type="curve" smooth="yes"/>
      <point x="48" y="-8"/>
      <point x="116" y="-35"/>
    </contour>
  </outline>
</glyph>
<glyph name="u1086F" format="2">
  <advance width="609"/>
  <unicode hex="1086F"/>
  <outline>
    <contour>
      <point x="294" y="-8" type="curve" smooth="yes"/>
      <point x="539" y="-8"/>
      <point x="549" y="155"/>
      <point x="549" y="214" type="curve" smooth="yes"/>
      <point x="549" y="311"/>
      <point x="502" y="369"/>
      <point x="456" y="425" type="curve" smooth="yes"/>
      <point x="404" y="488"/>
      <point x="372" y="545"/>
      <point x="372" y="609" type="curve" smooth="yes"/>
      <point x="372" y="636"/>
      <point x="352" y="640"/>
      <point x="323" y="640" type="curve" smooth="yes"/>
      <point x="298" y="640"/>
      <point x="284" y="630"/>
      <point x="283" y="612" type="curve" smooth="yes"/>
      <point x="280" y="563"/>
      <point x="261" y="513"/>
      <point x="225" y="461" type="curve"/>
      <point x="206" y="535"/>
      <point x="134" y="620"/>
      <point x="75" y="620" type="curve" smooth="yes"/>
      <point x="55" y="620"/>
      <point x="35" y="600"/>
      <point x="35" y="578" type="curve" smooth="yes"/>
      <point x="35" y="565"/>
      <point x="39" y="557"/>
      <point x="49" y="550" type="curve" smooth="yes"/>
      <point x="114" y="505"/>
      <point x="147" y="469"/>
      <point x="163" y="391" type="curve" smooth="yes"/>
      <point x="168" y="367"/>
      <point x="184" y="355"/>
      <point x="208" y="355" type="curve" smooth="yes"/>
      <point x="251" y="355"/>
      <point x="294" y="410"/>
      <point x="326" y="479" type="curve"/>
      <point x="346" y="445"/>
      <point x="371" y="411"/>
      <point x="394" y="380" type="curve" smooth="yes"/>
      <point x="432" y="329"/>
      <point x="461" y="280"/>
      <point x="461" y="214" type="curve" smooth="yes"/>
      <point x="461" y="114"/>
      <point x="379" y="68"/>
      <point x="298" y="68" type="curve" smooth="yes"/>
      <point x="186" y="68"/>
      <point x="130" y="97"/>
      <point x="101" y="114" type="curve" smooth="yes"/>
      <point x="89" y="121"/>
      <point x="81" y="125"/>
      <point x="71" y="125" type="curve" smooth="yes"/>
      <point x="52" y="125"/>
      <point x="36" y="103"/>
      <point x="36" y="77" type="curve" smooth="yes"/>
      <point x="36" y="64"/>
      <point x="42" y="58"/>
      <point x="52" y="49" type="curve" smooth="yes"/>
      <point x="74" y="29"/>
      <point x="153" y="-8"/>
    </contour>
  </outline>
</glyph>
<glyph name="u10871" format="2">
  <advance width="588"/>
  <unicode hex="10871"/>
  <outline>
    <contour>
      <point x="270" y="-2" type="curve" smooth="yes"/>
      <point x="479" y="-2"/>
      <point x="528" y="37"/>
      <point x="528" y="109" type="curve" smooth="yes"/>
      <point x="528" y="129"/>
      <point x="522" y="151"/>
      <point x="509" y="197" type="curve" smooth="yes"/>
      <point x="500" y="230"/>
      <point x="489" y="273"/>
      <point x="478" y="326" type="curve" smooth="yes"/>
      <point x="466" y="384"/>
      <point x="458" y="467"/>
      <point x="455" y="552" type="curve" smooth="yes"/>
      <point x="452" y="629"/>
      <point x="417" y="640"/>
      <point x="293" y="640" type="curve" smooth="yes"/>
      <point x="230" y="640"/>
      <point x="199" y="637"/>
      <point x="165" y="631" type="curve" smooth="yes"/>
      <point x="155" y="629"/>
      <point x="145" y="627"/>
      <point x="138" y="627" type="curve" smooth="yes"/>
      <point x="125" y="627"/>
      <point x="120" y="630"/>
      <point x="113" y="635" type="curve" smooth="yes"/>
      <point x="104" y="641"/>
      <point x="98" y="644"/>
      <point x="86" y="644" type="curve" smooth="yes"/>
      <point x="67" y="644"/>
      <point x="44" y="632"/>
      <point x="44" y="604" type="curve" smooth="yes"/>
      <point x="44" y="593"/>
      <point x="50" y="551"/>
      <point x="81" y="457" type="curve" smooth="yes"/>
      <point x="118" y="344"/>
      <point x="133" y="337"/>
      <point x="161" y="337" type="curve" smooth="yes"/>
      <point x="176" y="337"/>
      <point x="199" y="348"/>
      <point x="199" y="369" type="curve" smooth="yes"/>
      <point x="199" y="389"/>
      <point x="190" y="412"/>
      <point x="179" y="440" type="curve" smooth="yes"/>
      <point x="165" y="475"/>
      <point x="153" y="512"/>
      <point x="153" y="528" type="curve" smooth="yes"/>
      <point x="153" y="553"/>
      <point x="174" y="564"/>
      <point x="246" y="564" type="curve" smooth="yes"/>
      <point x="372" y="564"/>
      <point x="375" y="562"/>
      <point x="377" y="512" type="curve" smooth="yes"/>
      <point x="379" y="460"/>
      <point x="384" y="383"/>
      <point x="398" y="311" type="curve" smooth="yes"/>
      <point x="405" y="276"/>
      <point x="414" y="241"/>
      <point x="422" y="210" type="curve" smooth="yes"/>
      <point x="432" y="173"/>
      <point x="440" y="142"/>
      <point x="440" y="126" type="curve" smooth="yes"/>
      <point x="440" y="83"/>
      <point x="385" y="74"/>
      <point x="274" y="74" type="curve" smooth="yes"/>
      <point x="215" y="74"/>
      <point x="136" y="80"/>
      <point x="93" y="85" type="curve" smooth="yes"/>
      <point x="55" y="89"/>
      <point x="44" y="90"/>
      <point x="29" y="90" type="curve" smooth="yes"/>
      <point x="7" y="90"/>
      <point x="0" y="75"/>
      <point x="0" y="57" type="curve" smooth="yes"/>
      <point x="0" y="36"/>
      <point x="6" y="18"/>
      <point x="23" y="13" type="curve" smooth="yes"/>
      <point x="64" y="2"/>
      <point x="203" y="-2"/>
    </contour>
  </outline>
</glyph>
<glyph name="u10873" format="2">
  <advance width="777"/>
  <unicode hex="10873"/>
  <outline>
    <contour>
      <point x="96" y="-26" type="curve" smooth="yes"/>
      <point x="141" y="-26"/>
      <point x="199" y="37"/>
      <point x="199" y="138" type="curve" smooth="yes"/>
      <point x="199" y="193"/>
      <point x="191" y="246"/>
      <point x="181" y="308" type="curve" smooth="yes"/>
      <point x="173" y="359"/>
      <point x="164" y="417"/>
      <point x="158" y="501" type="curve"/>
      <point x="199" y="460"/>
      <point x="271" y="440"/>
      <point x="342" y="440" type="curve" smooth="yes"/>
      <point x="426" y="440"/>
      <point x="514" y="462"/>
      <point x="565" y="513" type="curve"/>
      <point x="577" y="400"/>
      <point x="602" y="322"/>
      <point x="622" y="261" type="curve" smooth="yes"/>
      <point x="637" y="214"/>
      <point x="649" y="176"/>
      <point x="649" y="146" type="curve" smooth="yes"/>
      <point x="649" y="95"/>
      <point x="626" y="66"/>
      <point x="582" y="66" type="curve" smooth="yes"/>
      <point x="553" y="66"/>
      <point x="532" y="79"/>
      <point x="515" y="90" type="curve" smooth="yes"/>
      <point x="505" y="97"/>
      <point x="496" y="102"/>
      <point x="486" y="102" type="curve" smooth="yes"/>
      <point x="465" y="102"/>
      <point x="445" y="80"/>
      <point x="445" y="58" type="curve" smooth="yes"/>
      <point x="445" y="27"/>
      <point x="500" y="-10"/>
      <point x="577" y="-10" type="curve" smooth="yes"/>
      <point x="661" y="-10"/>
      <point x="737" y="39"/>
      <point x="737" y="142" type="curve" smooth="yes"/>
      <point x="737" y="189"/>
      <point x="721" y="236"/>
      <point x="703" y="286" type="curve" smooth="yes"/>
      <point x="670" y="378"/>
      <point x="645" y="452"/>
      <point x="645" y="605" type="curve" smooth="yes"/>
      <point x="645" y="631"/>
      <point x="623" y="640"/>
      <point x="605" y="640" type="curve" smooth="yes"/>
      <point x="587" y="640"/>
      <point x="577" y="629"/>
      <point x="560" y="608" type="curve" smooth="yes"/>
      <point x="529" y="570"/>
      <point x="482" y="514"/>
      <point x="337" y="514" type="curve" smooth="yes"/>
      <point x="241" y="514"/>
      <point x="203" y="556"/>
      <point x="171" y="595" type="curve" smooth="yes"/>
      <point x="151" y="620"/>
      <point x="133" y="640"/>
      <point x="104" y="640" type="curve" smooth="yes"/>
      <point x="79" y="640"/>
      <point x="67" y="627"/>
      <point x="67" y="605" type="curve" smooth="yes"/>
      <point x="67" y="492"/>
      <point x="81" y="391"/>
      <point x="94" y="304" type="curve" smooth="yes"/>
      <point x="104" y="240"/>
      <point x="111" y="185"/>
      <point x="111" y="139" type="curve" smooth="yes"/>
      <point x="111" y="77"/>
      <point x="98" y="62"/>
      <point x="72" y="42" type="curve" smooth="yes"/>
      <point x="56" y="30"/>
      <point x="50" y="22"/>
      <point x="50" y="10" type="curve" smooth="yes"/>
      <point x="50" y="-8"/>
      <point x="71" y="-26"/>
    </contour>
  </outline>
</glyph>
<glyph name="u10875" format="2">
  <advance width="768"/>
  <unicode hex="10875"/>
  <outline>
    <contour>
      <point x="210" y="-12" type="curve" smooth="yes"/>
      <point x="350" y="-12"/>
      <point x="601" y="181"/>
      <point x="702" y="289" type="curve" smooth="yes"/>
      <point x="717" y="305"/>
      <point x="728" y="321"/>
      <point x="728" y="334" type="curve" smooth="yes"/>
      <point x="728" y="356"/>
      <point x="704" y="379"/>
      <point x="682" y="379" type="curve" smooth="yes"/>
      <point x="670" y="379"/>
      <point x="661" y="374"/>
      <point x="645" y="358" type="curve" smooth="yes"/>
      <point x="538" y="251"/>
      <point x="334" y="86"/>
      <point x="250" y="86" type="curve" smooth="yes"/>
      <point x="229" y="86"/>
      <point x="223" y="107"/>
      <point x="188" y="255" type="curve" smooth="yes"/>
      <point x="184" y="272"/>
      <point x="181" y="284"/>
      <point x="178" y="296" type="curve"/>
      <point x="329" y="358"/>
      <point x="430" y="495"/>
      <point x="430" y="527" type="curve" smooth="yes"/>
      <point x="430" y="550"/>
      <point x="410" y="558"/>
      <point x="382" y="558" type="curve" smooth="yes"/>
      <point x="365" y="558"/>
      <point x="352" y="552"/>
      <point x="341" y="533" type="curve" smooth="yes"/>
      <point x="307" y="474"/>
      <point x="232" y="406"/>
      <point x="159" y="372" type="curve"/>
      <point x="144" y="430"/>
      <point x="131" y="480"/>
      <point x="109" y="558" type="curve" smooth="yes"/>
      <point x="90" y="627"/>
      <point x="81" y="640"/>
      <point x="40" y="640" type="curve" smooth="yes"/>
      <point x="15" y="640"/>
      <point x="2" y="630"/>
      <point x="2" y="613" type="curve" smooth="yes"/>
      <point x="2" y="599"/>
      <point x="7" y="583"/>
      <point x="15" y="558" type="curve" smooth="yes"/>
      <point x="50" y="447"/>
      <point x="69" y="367"/>
      <point x="99" y="238" type="curve" smooth="yes"/>
      <point x="142" y="55"/>
      <point x="158" y="-12"/>
    </contour>
  </outline>
</glyph>
<glyph name="u10876" format="2">
  <advance width="684"/>
  <unicode hex="10876"/>
  <outline>
    <contour>
      <point x="153" y="-12" type="curve" smooth="yes"/>
      <point x="269" y="-12"/>
      <point x="304" y="53"/>
      <point x="304" y="119" type="curve" smooth="yes"/>
      <point x="304" y="166"/>
      <point x="290" y="226"/>
      <point x="275" y="288" type="curve"/>
      <point x="310" y="339"/>
      <point x="379" y="409"/>
      <point x="433" y="409" type="curve" smooth="yes"/>
      <point x="500" y="409"/>
      <point x="515" y="319"/>
      <point x="543" y="157" type="curve" smooth="yes"/>
      <point x="557" y="75"/>
      <point x="562" y="49"/>
      <point x="593" y="49" type="curve" smooth="yes"/>
      <point x="621" y="49"/>
      <point x="644" y="57"/>
      <point x="644" y="82" type="curve" smooth="yes"/>
      <point x="644" y="90"/>
      <point x="643" y="99"/>
      <point x="640" y="114" type="curve" smooth="yes"/>
      <point x="630" y="166"/>
      <point x="619" y="222"/>
      <point x="608" y="277" type="curve" smooth="yes"/>
      <point x="589" y="374"/>
      <point x="565" y="485"/>
      <point x="439" y="485" type="curve" smooth="yes"/>
      <point x="373" y="485"/>
      <point x="303" y="434"/>
      <point x="254" y="377" type="curve"/>
      <point x="234" y="450"/>
      <point x="218" y="528"/>
      <point x="214" y="608" type="curve" smooth="yes"/>
      <point x="213" y="631"/>
      <point x="202" y="640"/>
      <point x="175" y="640" type="curve" smooth="yes"/>
      <point x="138" y="640"/>
      <point x="125" y="627"/>
      <point x="125" y="602" type="curve" smooth="yes"/>
      <point x="125" y="548"/>
      <point x="148" y="446"/>
      <point x="173" y="347" type="curve" smooth="yes"/>
      <point x="196" y="255"/>
      <point x="216" y="166"/>
      <point x="216" y="121" type="curve" smooth="yes"/>
      <point x="216" y="77"/>
      <point x="183" y="64"/>
      <point x="157" y="64" type="curve" smooth="yes"/>
      <point x="128" y="64"/>
      <point x="105" y="77"/>
      <point x="92" y="87" type="curve" smooth="yes"/>
      <point x="83" y="94"/>
      <point x="76" y="98"/>
      <point x="67" y="98" type="curve" smooth="yes"/>
      <point x="49" y="98"/>
      <point x="30" y="77"/>
      <point x="30" y="55" type="curve" smooth="yes"/>
      <point x="30" y="22"/>
      <point x="78" y="-12"/>
    </contour>
  </outline>
</glyph>
<glyph name="u10878" format="2">
  <advance width="852"/>
  <unicode hex="10878"/>
  <outline>
    <contour>
      <point x="410" y="100" type="curve" smooth="yes"/>
      <point x="476" y="100"/>
      <point x="523" y="132"/>
      <point x="540" y="185" type="curve"/>
      <point x="553" y="180"/>
      <point x="568" y="177"/>
      <point x="586" y="177" type="curve" smooth="yes"/>
      <point x="656" y="177"/>
      <point x="718" y="238"/>
      <point x="811" y="344" type="curve" smooth="yes"/>
      <point x="826" y="361"/>
      <point x="835" y="372"/>
      <point x="835" y="382" type="curve" smooth="yes"/>
      <point x="835" y="392"/>
      <point x="825" y="397"/>
      <point x="809" y="404" type="curve" smooth="yes"/>
      <point x="763" y="424"/>
      <point x="681" y="447"/>
      <point x="599" y="447" type="curve" smooth="yes"/>
      <point x="582" y="447"/>
      <point x="561" y="445"/>
      <point x="543" y="441" type="curve"/>
      <point x="529" y="499"/>
      <point x="481" y="535"/>
      <point x="415" y="535" type="curve" smooth="yes"/>
      <point x="344" y="535"/>
      <point x="271" y="499"/>
      <point x="271" y="410" type="curve" smooth="yes"/>
      <point x="271" y="403"/>
      <point x="272" y="395"/>
      <point x="274" y="388" type="curve"/>
      <point x="246" y="408"/>
      <point x="212" y="422"/>
      <point x="166" y="422" type="curve" smooth="yes"/>
      <point x="84" y="422"/>
      <point x="30" y="360"/>
      <point x="30" y="281" type="curve" smooth="yes"/>
      <point x="30" y="241"/>
      <point x="45" y="224"/>
      <point x="95" y="224" type="curve" smooth="yes"/>
      <point x="112" y="224"/>
      <point x="120" y="231"/>
      <point x="120" y="244" type="curve" smooth="yes"/>
      <point x="120" y="249"/>
      <point x="119" y="256"/>
      <point x="118" y="263" type="curve" smooth="yes"/>
      <point x="117" y="269"/>
      <point x="116" y="276"/>
      <point x="116" y="283" type="curve" smooth="yes"/>
      <point x="116" y="326"/>
      <point x="142" y="356"/>
      <point x="183" y="356" type="curve" smooth="yes"/>
      <point x="227" y="356"/>
      <point x="276" y="327"/>
      <point x="292" y="291" type="curve"/>
      <point x="280" y="272"/>
      <point x="271" y="249"/>
      <point x="271" y="225" type="curve" smooth="yes"/>
      <point x="271" y="147"/>
      <point x="343" y="100"/>
    </contour>
    <contour>
      <point x="414" y="166" type="curve" smooth="yes"/>
      <point x="377" y="166"/>
      <point x="344" y="190"/>
      <point x="344" y="234" type="curve" smooth="yes"/>
      <point x="344" y="278"/>
      <point x="376" y="295"/>
      <point x="402" y="305" type="curve" smooth="yes"/>
      <point x="412" y="309"/>
      <point x="420" y="313"/>
      <point x="420" y="318" type="curve" smooth="yes"/>
      <point x="420" y="323"/>
      <point x="413" y="325"/>
      <point x="402" y="328" type="curve" smooth="yes"/>
      <point x="380" y="334"/>
      <point x="344" y="348"/>
      <point x="344" y="400" type="curve" smooth="yes"/>
      <point x="344" y="447"/>
      <point x="379" y="469"/>
      <point x="414" y="469" type="curve" smooth="yes"/>
      <point x="452" y="469"/>
      <point x="483" y="444"/>
      <point x="483" y="400" type="curve" smooth="yes"/>
      <point x="483" y="378"/>
      <point x="490" y="361"/>
      <point x="510" y="361" type="curve" smooth="yes"/>
      <point x="518" y="361"/>
      <point x="526" y="364"/>
      <point x="533" y="368" type="curve" smooth="yes"/>
      <point x="545" y="375"/>
      <point x="565" y="381"/>
      <point x="593" y="381" type="curve" smooth="yes"/>
      <point x="633" y="381"/>
      <point x="693" y="373"/>
      <point x="734" y="356" type="curve"/>
      <point x="712" y="340"/>
      <point x="692" y="321"/>
      <point x="668" y="294" type="curve" smooth="yes"/>
      <point x="641" y="264"/>
      <point x="614" y="243"/>
      <point x="587" y="243" type="curve" smooth="yes"/>
      <point x="563" y="243"/>
      <point x="548" y="252"/>
      <point x="535" y="262" type="curve" smooth="yes"/>
      <point x="526" y="269"/>
      <point x="518" y="274"/>
      <point x="507" y="274" type="curve" smooth="yes"/>
      <point x="489" y="274"/>
      <point x="483" y="254"/>
      <point x="483" y="233" type="curve" smooth="yes"/>
      <point x="483" y="195"/>
      <point x="457" y="166"/>
    </contour>
  </outline>
</glyph>
<glyph name="u1087A" format="2">
  <advance width="528"/>
  <unicode hex="1087A"/>
  <outline>
    <contour>
      <point x="95" y="-53" type="curve" smooth="yes"/>
      <point x="113" y="-53"/>
      <point x="132" y="-41"/>
      <point x="150" y="-9" type="curve" smooth="yes"/>
      <point x="202" y="83"/>
      <point x="213" y="177"/>
      <point x="220" y="404" type="curve" smooth="yes"/>
      <point x="222" y="470"/>
      <point x="222" y="538"/>
      <point x="222" y="610" type="curve" smooth="yes"/>
      <point x="222" y="638"/>
      <point x="202" y="640"/>
      <point x="174" y="640" type="curve" smooth="yes"/>
      <point x="149" y="640"/>
      <point x="130" y="632"/>
      <point x="130" y="609" type="curve" smooth="yes"/>
      <point x="130" y="588"/>
      <point x="131" y="563"/>
      <point x="133" y="519" type="curve" smooth="yes"/>
      <point x="135" y="481"/>
      <point x="137" y="441"/>
      <point x="137" y="415" type="curve" smooth="yes"/>
      <point x="137" y="223"/>
      <point x="126" y="81"/>
      <point x="66" y="11" type="curve" smooth="yes"/>
      <point x="54" y="-3"/>
      <point x="50" y="-12"/>
      <point x="50" y="-22" type="curve" smooth="yes"/>
      <point x="50" y="-37"/>
      <point x="65" y="-53"/>
    </contour>
    <contour>
      <point x="340" y="64" type="curve" smooth="yes"/>
      <point x="358" y="64"/>
      <point x="373" y="82"/>
      <point x="384" y="117" type="curve" smooth="yes"/>
      <point x="404" y="181"/>
      <point x="421" y="241"/>
      <point x="423" y="404" type="curve" smooth="yes"/>
      <point x="424" y="470"/>
      <point x="425" y="538"/>
      <point x="425" y="610" type="curve" smooth="yes"/>
      <point x="425" y="638"/>
      <point x="405" y="640"/>
      <point x="377" y="640" type="curve" smooth="yes"/>
      <point x="352" y="640"/>
      <point x="333" y="632"/>
      <point x="333" y="609" type="curve" smooth="yes"/>
      <point x="333" y="588"/>
      <point x="334" y="563"/>
      <point x="336" y="519" type="curve" smooth="yes"/>
      <point x="338" y="481"/>
      <point x="340" y="441"/>
      <point x="340" y="415" type="curve" smooth="yes"/>
      <point x="340" y="279"/>
      <point x="330" y="196"/>
      <point x="306" y="137" type="curve" smooth="yes"/>
      <point x="299" y="120"/>
      <point x="297" y="105"/>
      <point x="297" y="95" type="curve" smooth="yes"/>
      <point x="297" y="80"/>
      <point x="310" y="64"/>
    </contour>
  </outline>
</glyph>
<glyph name="u1087C" format="2">
  <advance width="928"/>
  <unicode hex="1087C"/>
  <outline>
    <contour>
      <point x="95" y="-53" type="curve" smooth="yes"/>
      <point x="113" y="-53"/>
      <point x="132" y="-41"/>
      <point x="150" y="-9" type="curve" smooth="yes"/>
      <point x="202" y="83"/>
      <point x="213" y="177"/>
      <point x="220" y="404" type="curve" smooth="yes"/>
      <point x="222" y="470"/>
      <point x="222" y="538"/>
      <point x="222" y="610" type="curve" smooth="yes"/>
      <point x="222" y="638"/>
      <point x="202" y="640"/>
      <point x="174" y="640" type="curve" smooth="yes"/>
      <point x="149" y="640"/>
      <point x="130" y="632"/>
      <point x="130" y="609" type="curve" smooth="yes"/>
      <point x="130" y="588"/>
      <point x="131" y="563"/>
      <point x="133" y="519" type="curve" smooth="yes"/>
      <point x="135" y="481"/>
      <point x="137" y="441"/>
      <point x="137" y="415" type="curve" smooth="yes"/>
      <point x="137" y="223"/>
      <point x="126" y="81"/>
      <point x="66" y="11" type="curve" smooth="yes"/>
      <point x="54" y="-3"/>
      <point x="50" y="-12"/>
      <point x="50" y="-22" type="curve" smooth="yes"/>
      <point x="50" y="-37"/>
      <point x="65" y="-53"/>
    </contour>
    <contour>
      <point x="340" y="64" type="curve" smooth="yes"/>
      <point x="358" y="64"/>
      <point x="373" y="82"/>
      <point x="384" y="117" type="curve" smooth="yes"/>
      <point x="404" y="181"/>
      <point x="421" y="241"/>
      <point x="423" y="404" type="curve" smooth="yes"/>
      <point x="424" y="470"/>
      <point x="425" y="538"/>
      <point x="425" y="610" type="curve" smooth="yes"/>
      <point x="425" y="638"/>
      <point x="405" y="640"/>
      <point x="377" y="640" type="curve" smooth="yes"/>
      <point x="352" y="640"/>
      <point x="333" y="632"/>
      <point x="333" y="609" type="curve" smooth="yes"/>
      <point x="333" y="588"/>
      <point x="334" y="563"/>
      <point x="336" y="519" type="curve" smooth="yes"/>
      <point x="338" y="481"/>
      <point x="340" y="441"/>
      <point x="340" y="415" type="curve" smooth="yes"/>
      <point x="340" y="279"/>
      <point x="330" y="196"/>
      <point x="306" y="137" type="curve" smooth="yes"/>
      <point x="299" y="120"/>
      <point x="297" y="105"/>
      <point x="297" y="95" type="curve" smooth="yes"/>
      <point x="297" y="80"/>
      <point x="310" y="64"/>
    </contour>
    <contour>
      <point x="540" y="64" type="curve" smooth="yes"/>
      <point x="558" y="64"/>
      <point x="573" y="82"/>
      <point x="584" y="117" type="curve" smooth="yes"/>
      <point x="604" y="181"/>
      <point x="621" y="241"/>
      <point x="623" y="404" type="curve" smooth="yes"/>
      <point x="624" y="470"/>
      <point x="625" y="538"/>
      <point x="625" y="610" type="curve" smooth="yes"/>
      <point x="625" y="638"/>
      <point x="605" y="640"/>
      <point x="577" y="640" type="curve" smooth="yes"/>
      <point x="552" y="640"/>
      <point x="533" y="632"/>
      <point x="533" y="609" type="curve" smooth="yes"/>
      <point x="533" y="588"/>
      <point x="534" y="563"/>
      <point x="536" y="519" type="curve" smooth="yes"/>
      <point x="538" y="481"/>
      <point x="540" y="441"/>
      <point x="540" y="415" type="curve" smooth="yes"/>
      <point x="540" y="279"/>
      <point x="530" y="196"/>
      <point x="506" y="137" type="curve" smooth="yes"/>
      <point x="499" y="120"/>
      <point x="497" y="105"/>
      <point x="497" y="95" type="curve" smooth="yes"/>
      <point x="497" y="80"/>
      <point x="510" y="64"/>
    </contour>
    <contour>
      <point x="740" y="64" type="curve" smooth="yes"/>
      <point x="758" y="64"/>
      <point x="773" y="82"/>
      <point x="784" y="117" type="curve" smooth="yes"/>
      <point x="804" y="181"/>
      <point x="821" y="241"/>
      <point x="823" y="404" type="curve" smooth="yes"/>
      <point x="824" y="470"/>
      <point x="825" y="538"/>
      <point x="825" y="610" type="curve" smooth="yes"/>
      <point x="825" y="638"/>
      <point x="805" y="640"/>
      <point x="777" y="640" type="curve" smooth="yes"/>
      <point x="752" y="640"/>
      <point x="733" y="632"/>
      <point x="733" y="609" type="curve" smooth="yes"/>
      <point x="733" y="588"/>
      <point x="734" y="563"/>
      <point x="736" y="519" type="curve" smooth="yes"/>
      <point x="738" y="481"/>
      <point x="740" y="441"/>
      <point x="740" y="415" type="curve" smooth="yes"/>
      <point x="740" y="279"/>
      <point x="730" y="196"/>
      <point x="706" y="137" type="curve" smooth="yes"/>
      <point x="699" y="120"/>
      <point x="697" y="105"/>
      <point x="697" y="95" type="curve" smooth="yes"/>
      <point x="697" y="80"/>
      <point x="710" y="64"/>
    </contour>
  </outline>
</glyph>
<glyph name="u1087E" format="2">
  <advance width="1150"/>
  <unicode hex="1087E"/>
  <outline>
    <contour>
      <point x="843" y="95" type="curve" smooth="yes"/>
      <point x="867" y="95"/>
      <point x="878" y="115"/>
      <point x="878" y="132" type="curve" smooth="yes"/>
      <point x="878" y="148"/>
      <point x="873" y="155"/>
      <point x="864" y="161" type="curve" smooth="yes"/>
      <point x="856" y="166"/>
      <point x="851" y="171"/>
      <point x="851" y="177" type="curve" smooth="yes"/>
      <point x="851" y="187"/>
      <point x="858" y="192"/>
      <point x="871" y="192" type="curve" smooth="yes"/>
      <point x="882" y="192"/>
      <point x="897" y="190"/>
      <point x="911" y="187" type="curve" smooth="yes"/>
      <point x="929" y="183"/>
      <point x="947" y="181"/>
      <point x="971" y="181" type="curve" smooth="yes"/>
      <point x="1062" y="181"/>
      <point x="1115" y="230"/>
      <point x="1115" y="320" type="curve" smooth="yes"/>
      <point x="1115" y="384"/>
      <point x="1075" y="448"/>
      <point x="949" y="448" type="curve" smooth="yes"/>
      <point x="289" y="448" type="line" smooth="yes"/>
      <point x="170" y="448"/>
      <point x="106" y="446"/>
      <point x="42" y="437" type="curve" smooth="yes"/>
      <point x="14" y="433"/>
      <point x="6" y="407"/>
      <point x="6" y="383" type="curve" smooth="yes"/>
      <point x="6" y="373"/>
      <point x="10" y="356"/>
      <point x="34" y="356" type="curve" smooth="yes"/>
      <point x="44" y="356"/>
      <point x="58" y="357"/>
      <point x="84" y="360" type="curve" smooth="yes"/>
      <point x="138" y="366"/>
      <point x="203" y="373"/>
      <point x="280" y="373" type="curve" smooth="yes"/>
      <point x="959" y="373" type="line" smooth="yes"/>
      <point x="1017" y="373"/>
      <point x="1043" y="346"/>
      <point x="1043" y="312" type="curve" smooth="yes"/>
      <point x="1043" y="273"/>
      <point x="1008" y="252"/>
      <point x="971" y="252" type="curve" smooth="yes"/>
      <point x="949" y="252"/>
      <point x="930" y="254"/>
      <point x="909" y="258" type="curve" smooth="yes"/>
      <point x="891" y="261"/>
      <point x="872" y="263"/>
      <point x="853" y="263" type="curve" smooth="yes"/>
      <point x="802" y="263"/>
      <point x="762" y="232"/>
      <point x="762" y="183" type="curve" smooth="yes"/>
      <point x="762" y="126"/>
      <point x="805" y="95"/>
    </contour>
  </outline>
</glyph>
<glyph name="u1087F" format="2">
  <advance width="509"/>
  <unicode hex="1087F"/>
  <outline>
    <contour>
      <point x="245" y="-10" type="curve" smooth="yes"/>
      <point x="370" y="-10"/>
      <point x="449" y="55"/>
      <point x="449" y="166" type="curve" smooth="yes"/>
      <point x="449" y="254"/>
      <point x="392" y="311"/>
      <point x="329" y="326" type="curve"/>
      <point x="372" y="358"/>
      <point x="413" y="406"/>
      <point x="413" y="487" type="curve" smooth="yes"/>
      <point x="413" y="613"/>
      <point x="325" y="640"/>
      <point x="257" y="640" type="curve" smooth="yes"/>
      <point x="163" y="640"/>
      <point x="100" y="589"/>
      <point x="100" y="510" type="curve" smooth="yes"/>
      <point x="100" y="445"/>
      <point x="146" y="406"/>
      <point x="195" y="406" type="curve" smooth="yes"/>
      <point x="220" y="406"/>
      <point x="230" y="424"/>
      <point x="230" y="445" type="curve" smooth="yes"/>
      <point x="230" y="461"/>
      <point x="223" y="467"/>
      <point x="210" y="474" type="curve" smooth="yes"/>
      <point x="194" y="482"/>
      <point x="184" y="493"/>
      <point x="184" y="513" type="curve" smooth="yes"/>
      <point x="184" y="549"/>
      <point x="218" y="564"/>
      <point x="257" y="564" type="curve" smooth="yes"/>
      <point x="296" y="564"/>
      <point x="335" y="545"/>
      <point x="335" y="487" type="curve" smooth="yes"/>
      <point x="335" y="424"/>
      <point x="304" y="396"/>
      <point x="261" y="358" type="curve" smooth="yes"/>
      <point x="243" y="342"/>
      <point x="236" y="333"/>
      <point x="236" y="318" type="curve" smooth="yes"/>
      <point x="236" y="298"/>
      <point x="255" y="287"/>
      <point x="276" y="278" type="curve" smooth="yes"/>
      <point x="320" y="259"/>
      <point x="361" y="225"/>
      <point x="361" y="166" type="curve" smooth="yes"/>
      <point x="361" y="117"/>
      <point x="335" y="66"/>
      <point x="249" y="66" type="curve" smooth="yes"/>
      <point x="178" y="66"/>
      <point x="152" y="90"/>
      <point x="152" y="121" type="curve" smooth="yes"/>
      <point x="152" y="125"/>
      <point x="152" y="127"/>
      <point x="153" y="132" type="curve" smooth="yes"/>
      <point x="154" y="136"/>
      <point x="155" y="140"/>
      <point x="155" y="143" type="curve" smooth="yes"/>
      <point x="155" y="157"/>
      <point x="147" y="163"/>
      <point x="128" y="163" type="curve" smooth="yes"/>
      <point x="81" y="163"/>
      <point x="66" y="142"/>
      <point x="66" y="117" type="curve" smooth="yes"/>
      <point x="66" y="57"/>
      <point x="109" y="-10"/>
    </contour>
  </outline>
</glyph>
<glyph name="u1086110863" format="2">
  <advance width="1060"/>
  <outline>
    <contour>
      <point x="736" y="-8" type="curve" smooth="yes"/>
      <point x="806" y="-8"/>
      <point x="877" y="-3"/>
      <point x="921" y="3" type="curve" smooth="yes"/>
      <point x="970" y="10"/>
      <point x="1000" y="45"/>
      <point x="1000" y="93" type="curve" smooth="yes"/>
      <point x="1000" y="159"/>
      <point x="976" y="291"/>
      <point x="942" y="456" type="curve" smooth="yes"/>
      <point x="915" y="588"/>
      <point x="898" y="635"/>
      <point x="846" y="635" type="curve" smooth="yes"/>
      <point x="823" y="635"/>
      <point x="803" y="627"/>
      <point x="783" y="614" type="curve" smooth="yes"/>
      <point x="759" y="598"/>
      <point x="730" y="582"/>
      <point x="675" y="582" type="curve" smooth="yes"/>
      <point x="612" y="582"/>
      <point x="597" y="605"/>
      <point x="587" y="622" type="curve" smooth="yes"/>
      <point x="575" y="643"/>
      <point x="564" y="647"/>
      <point x="541" y="647" type="curve" smooth="yes"/>
      <point x="518" y="647"/>
      <point x="501" y="637"/>
      <point x="501" y="620" type="curve" smooth="yes"/>
      <point x="501" y="588"/>
      <point x="549" y="508"/>
      <point x="662" y="508" type="curve" smooth="yes"/>
      <point x="732" y="508"/>
      <point x="762" y="521"/>
      <point x="783" y="531" type="curve" smooth="yes"/>
      <point x="798" y="538"/>
      <point x="806" y="540"/>
      <point x="814" y="540" type="curve" smooth="yes"/>
      <point x="840" y="540"/>
      <point x="850" y="487"/>
      <point x="859" y="440" type="curve" smooth="yes"/>
      <point x="884" y="311"/>
      <point x="912" y="150"/>
      <point x="912" y="118" type="curve" smooth="yes"/>
      <point x="912" y="76"/>
      <point x="855" y="70"/>
      <point x="727" y="70" type="curve" smooth="yes"/>
      <point x="656" y="70"/>
      <point x="586" y="73"/>
      <point x="554" y="78" type="curve"/>
      <point x="531" y="141"/>
      <point x="511" y="200"/>
      <point x="493" y="264" type="curve" smooth="yes"/>
      <point x="457" y="392"/>
      <point x="444" y="494"/>
      <point x="444" y="617" type="curve" smooth="yes"/>
      <point x="444" y="635"/>
      <point x="433" y="640"/>
      <point x="402" y="640" type="curve" smooth="yes"/>
      <point x="377" y="640"/>
      <point x="363" y="632"/>
      <point x="360" y="612" type="curve" smooth="yes"/>
      <point x="358" y="597"/>
      <point x="358" y="568"/>
      <point x="358" y="544" type="curve" smooth="yes"/>
      <point x="358" y="486"/>
      <point x="294" y="452"/>
      <point x="243" y="452" type="curve" smooth="yes"/>
      <point x="155" y="452"/>
      <point x="108" y="506"/>
      <point x="108" y="580" type="curve" smooth="yes"/>
      <point x="108" y="589"/>
      <point x="108" y="595"/>
      <point x="109" y="604" type="curve" smooth="yes"/>
      <point x="110" y="612"/>
      <point x="110" y="614"/>
      <point x="110" y="619" type="curve" smooth="yes"/>
      <point x="110" y="633"/>
      <point x="99" y="640"/>
      <point x="66" y="640" type="curve" smooth="yes"/>
      <point x="26" y="640"/>
      <point x="20" y="616"/>
      <point x="20" y="581" type="curve" smooth="yes"/>
      <point x="20" y="521"/>
      <point x="53" y="376"/>
      <point x="241" y="376" type="curve" smooth="yes"/>
      <point x="292" y="376"/>
      <point x="339" y="389"/>
      <point x="373" y="419" type="curve"/>
      <point x="398" y="256"/>
      <point x="459" y="87"/>
      <point x="471" y="54" type="curve" smooth="yes"/>
      <point x="482" y="25"/>
      <point x="496" y="6"/>
      <point x="518" y="0" type="curve" smooth="yes"/>
      <point x="549" y="-8"/>
      <point x="612" y="-8"/>
    </contour>
  </outline>
</glyph>
<glyph name="u1086110865" format="2">
  <advance width="990"/>
  <outline>
    <contour>
      <point x="666" y="-8" type="curve" smooth="yes"/>
      <point x="736" y="-8"/>
      <point x="807" y="-3"/>
      <point x="851" y="3" type="curve" smooth="yes"/>
      <point x="900" y="10"/>
      <point x="930" y="45"/>
      <point x="930" y="93" type="curve" smooth="yes"/>
      <point x="930" y="159"/>
      <point x="906" y="291"/>
      <point x="872" y="456" type="curve" smooth="yes"/>
      <point x="845" y="588"/>
      <point x="828" y="635"/>
      <point x="776" y="635" type="curve" smooth="yes"/>
      <point x="753" y="635"/>
      <point x="733" y="627"/>
      <point x="713" y="614" type="curve" smooth="yes"/>
      <point x="689" y="598"/>
      <point x="660" y="582"/>
      <point x="605" y="582" type="curve" smooth="yes"/>
      <point x="542" y="582"/>
      <point x="527" y="605"/>
      <point x="517" y="622" type="curve" smooth="yes"/>
      <point x="505" y="643"/>
      <point x="494" y="647"/>
      <point x="470" y="647" type="curve" smooth="yes"/>
      <point x="448" y="647"/>
      <point x="431" y="637"/>
      <point x="431" y="620" type="curve" smooth="yes"/>
      <point x="431" y="588"/>
      <point x="479" y="508"/>
      <point x="592" y="508" type="curve" smooth="yes"/>
      <point x="662" y="508"/>
      <point x="692" y="521"/>
      <point x="713" y="531" type="curve" smooth="yes"/>
      <point x="728" y="538"/>
      <point x="736" y="540"/>
      <point x="744" y="540" type="curve" smooth="yes"/>
      <point x="770" y="540"/>
      <point x="780" y="487"/>
      <point x="789" y="440" type="curve" smooth="yes"/>
      <point x="814" y="311"/>
      <point x="842" y="150"/>
      <point x="842" y="118" type="curve" smooth="yes"/>
      <point x="842" y="76"/>
      <point x="785" y="70"/>
      <point x="657" y="70" type="curve" smooth="yes"/>
      <point x="577" y="70"/>
      <point x="497" y="74"/>
      <point x="462" y="82" type="curve"/>
      <point x="449" y="135"/>
      <point x="436" y="207"/>
      <point x="422" y="286" type="curve" smooth="yes"/>
      <point x="388" y="480" type="line" smooth="yes"/>
      <point x="369" y="591"/>
      <point x="322" y="650"/>
      <point x="181" y="650" type="curve" smooth="yes"/>
      <point x="46" y="650"/>
      <point x="0" y="594"/>
      <point x="0" y="527" type="curve" smooth="yes"/>
      <point x="0" y="463"/>
      <point x="27" y="427"/>
      <point x="58" y="427" type="curve" smooth="yes"/>
      <point x="75" y="427"/>
      <point x="96" y="439"/>
      <point x="96" y="459" type="curve" smooth="yes"/>
      <point x="96" y="468"/>
      <point x="93" y="478"/>
      <point x="89" y="489" type="curve" smooth="yes"/>
      <point x="86" y="498"/>
      <point x="84" y="507"/>
      <point x="84" y="521" type="curve" smooth="yes"/>
      <point x="84" y="547"/>
      <point x="99" y="574"/>
      <point x="184" y="574" type="curve" smooth="yes"/>
      <point x="267" y="574"/>
      <point x="291" y="533"/>
      <point x="303" y="462" type="curve" smooth="yes"/>
      <point x="355" y="161" type="line" smooth="yes"/>
      <point x="370" y="73"/>
      <point x="384" y="16"/>
      <point x="426" y="4" type="curve" smooth="yes"/>
      <point x="460" y="-6"/>
      <point x="529" y="-8"/>
    </contour>
  </outline>
</glyph>
<glyph name="u1086710863" format="2">
  <advance width="1212"/>
  <outline>
    <contour>
      <point x="616" y="-13" type="curve" smooth="yes"/>
      <point x="726" y="-13"/>
      <point x="767" y="44"/>
      <point x="767" y="104" type="curve" smooth="yes"/>
      <point x="767" y="151"/>
      <point x="750" y="222"/>
      <point x="727" y="291" type="curve"/>
      <point x="757" y="314"/>
      <point x="791" y="336"/>
      <point x="822" y="336" type="curve" smooth="yes"/>
      <point x="857" y="336"/>
      <point x="924" y="291"/>
      <point x="980" y="250" type="curve"/>
      <point x="1004" y="172"/>
      <point x="1039" y="75"/>
      <point x="1066" y="13" type="curve" smooth="yes"/>
      <point x="1074" y="-5"/>
      <point x="1085" y="-13"/>
      <point x="1110" y="-13" type="curve" smooth="yes"/>
      <point x="1141" y="-13"/>
      <point x="1152" y="4"/>
      <point x="1152" y="19" type="curve" smooth="yes"/>
      <point x="1152" y="29"/>
      <point x="1149" y="42"/>
      <point x="1137" y="71" type="curve" smooth="yes"/>
      <point x="1054" y="272"/>
      <point x="1013" y="386"/>
      <point x="1013" y="596" type="curve" smooth="yes"/>
      <point x="1013" y="630"/>
      <point x="1011" y="640"/>
      <point x="972" y="640" type="curve" smooth="yes"/>
      <point x="944" y="640"/>
      <point x="931" y="631"/>
      <point x="929" y="617" type="curve" smooth="yes"/>
      <point x="926" y="594"/>
      <point x="926" y="576"/>
      <point x="926" y="558" type="curve" smooth="yes"/>
      <point x="926" y="491"/>
      <point x="937" y="420"/>
      <point x="953" y="352" type="curve"/>
      <point x="901" y="385"/>
      <point x="863" y="408"/>
      <point x="826" y="408" type="curve" smooth="yes"/>
      <point x="782" y="408"/>
      <point x="741" y="383"/>
      <point x="706" y="358" type="curve"/>
      <point x="684" y="442"/>
      <point x="673" y="545"/>
      <point x="673" y="607" type="curve" smooth="yes"/>
      <point x="673" y="631"/>
      <point x="667" y="640"/>
      <point x="632" y="640" type="curve" smooth="yes"/>
      <point x="595" y="640"/>
      <point x="587" y="627"/>
      <point x="587" y="602" type="curve" smooth="yes"/>
      <point x="587" y="530"/>
      <point x="598" y="417"/>
      <point x="630" y="315" type="curve" smooth="yes"/>
      <point x="658" y="225"/>
      <point x="679" y="146"/>
      <point x="679" y="114" type="curve" smooth="yes"/>
      <point x="679" y="77"/>
      <point x="659" y="63"/>
      <point x="616" y="63" type="curve" smooth="yes"/>
      <point x="574" y="63"/>
      <point x="552" y="85"/>
      <point x="532" y="139" type="curve" smooth="yes"/>
      <point x="475" y="293"/>
      <point x="444" y="441"/>
      <point x="444" y="617" type="curve" smooth="yes"/>
      <point x="444" y="635"/>
      <point x="433" y="640"/>
      <point x="402" y="640" type="curve" smooth="yes"/>
      <point x="377" y="640"/>
      <point x="363" y="632"/>
      <point x="360" y="612" type="curve" smooth="yes"/>
      <point x="358" y="597"/>
      <point x="358" y="568"/>
      <point x="358" y="544" type="curve" smooth="yes"/>
      <point x="358" y="486"/>
      <point x="294" y="452"/>
      <point x="243" y="452" type="curve" smooth="yes"/>
      <point x="155" y="452"/>
      <point x="108" y="506"/>
      <point x="108" y="580" type="curve" smooth="yes"/>
      <point x="108" y="589"/>
      <point x="108" y="595"/>
      <point x="109" y="604" type="curve" smooth="yes"/>
      <point x="110" y="612"/>
      <point x="110" y="614"/>
      <point x="110" y="619" type="curve" smooth="yes"/>
      <point x="110" y="633"/>
      <point x="99" y="640"/>
      <point x="66" y="640" type="curve" smooth="yes"/>
      <point x="26" y="640"/>
      <point x="20" y="616"/>
      <point x="20" y="581" type="curve" smooth="yes"/>
      <point x="20" y="521"/>
      <point x="53" y="376"/>
      <point x="241" y="376" type="curve" smooth="yes"/>
      <point x="292" y="376"/>
      <point x="339" y="389"/>
      <point x="373" y="419" type="curve"/>
      <point x="389" y="316"/>
      <point x="414" y="216"/>
      <point x="450" y="115" type="curve" smooth="yes"/>
      <point x="482" y="24"/>
      <point x="529" y="-13"/>
    </contour>
  </outline>
</glyph>
<glyph name="u1086710865" format="2">
  <advance width="1132"/>
  <outline>
    <contour>
      <point x="539" y="-13" type="curve" smooth="yes"/>
      <point x="646" y="-13"/>
      <point x="687" y="44"/>
      <point x="687" y="104" type="curve" smooth="yes"/>
      <point x="687" y="151"/>
      <point x="670" y="222"/>
      <point x="647" y="291" type="curve"/>
      <point x="677" y="314"/>
      <point x="711" y="336"/>
      <point x="742" y="336" type="curve" smooth="yes"/>
      <point x="777" y="336"/>
      <point x="844" y="291"/>
      <point x="900" y="250" type="curve"/>
      <point x="924" y="172"/>
      <point x="959" y="75"/>
      <point x="986" y="13" type="curve" smooth="yes"/>
      <point x="994" y="-5"/>
      <point x="1005" y="-13"/>
      <point x="1030" y="-13" type="curve" smooth="yes"/>
      <point x="1061" y="-13"/>
      <point x="1072" y="4"/>
      <point x="1072" y="19" type="curve" smooth="yes"/>
      <point x="1072" y="29"/>
      <point x="1069" y="42"/>
      <point x="1057" y="71" type="curve" smooth="yes"/>
      <point x="974" y="272"/>
      <point x="933" y="386"/>
      <point x="933" y="596" type="curve" smooth="yes"/>
      <point x="933" y="630"/>
      <point x="931" y="640"/>
      <point x="892" y="640" type="curve" smooth="yes"/>
      <point x="864" y="640"/>
      <point x="851" y="631"/>
      <point x="849" y="617" type="curve" smooth="yes"/>
      <point x="846" y="594"/>
      <point x="846" y="576"/>
      <point x="846" y="558" type="curve" smooth="yes"/>
      <point x="846" y="491"/>
      <point x="857" y="420"/>
      <point x="873" y="352" type="curve"/>
      <point x="821" y="385"/>
      <point x="783" y="408"/>
      <point x="746" y="408" type="curve" smooth="yes"/>
      <point x="702" y="408"/>
      <point x="661" y="383"/>
      <point x="626" y="358" type="curve"/>
      <point x="604" y="442"/>
      <point x="593" y="545"/>
      <point x="593" y="607" type="curve" smooth="yes"/>
      <point x="593" y="631"/>
      <point x="587" y="640"/>
      <point x="552" y="640" type="curve" smooth="yes"/>
      <point x="515" y="640"/>
      <point x="507" y="627"/>
      <point x="507" y="602" type="curve" smooth="yes"/>
      <point x="507" y="530"/>
      <point x="518" y="417"/>
      <point x="550" y="315" type="curve" smooth="yes"/>
      <point x="578" y="225"/>
      <point x="599" y="146"/>
      <point x="599" y="114" type="curve" smooth="yes"/>
      <point x="599" y="77"/>
      <point x="579" y="63"/>
      <point x="537" y="63" type="curve" smooth="yes"/>
      <point x="489" y="63"/>
      <point x="460" y="90"/>
      <point x="448" y="153" type="curve" smooth="yes"/>
      <point x="388" y="480" type="line" smooth="yes"/>
      <point x="368" y="590"/>
      <point x="322" y="650"/>
      <point x="181" y="650" type="curve" smooth="yes"/>
      <point x="46" y="650"/>
      <point x="0" y="594"/>
      <point x="0" y="527" type="curve" smooth="yes"/>
      <point x="0" y="463"/>
      <point x="27" y="427"/>
      <point x="58" y="427" type="curve" smooth="yes"/>
      <point x="75" y="427"/>
      <point x="96" y="439"/>
      <point x="96" y="459" type="curve" smooth="yes"/>
      <point x="96" y="468"/>
      <point x="93" y="478"/>
      <point x="89" y="489" type="curve" smooth="yes"/>
      <point x="86" y="498"/>
      <point x="84" y="507"/>
      <point x="84" y="521" type="curve" smooth="yes"/>
      <point x="84" y="547"/>
      <point x="99" y="574"/>
      <point x="184" y="574" type="curve" smooth="yes"/>
      <point x="267" y="574"/>
      <point x="290" y="533"/>
      <point x="303" y="462" type="curve" smooth="yes"/>
      <point x="363" y="135" type="line" smooth="yes"/>
      <point x="380" y="43"/>
      <point x="429" y="-13"/>
    </contour>
  </outline>
</glyph>
<glyph name="u1086C10860" format="2">
  <advance width="1308"/>
  <outline>
    <contour>
      <point x="1096" y="-10" type="curve" smooth="yes"/>
      <point x="1166" y="-10"/>
      <point x="1268" y="14"/>
      <point x="1268" y="150" type="curve" smooth="yes"/>
      <point x="1268" y="214"/>
      <point x="1243" y="265"/>
      <point x="1210" y="326" type="curve" smooth="yes"/>
      <point x="1188" y="367"/>
      <point x="1168" y="405"/>
      <point x="1168" y="446" type="curve" smooth="yes"/>
      <point x="1168" y="451"/>
      <point x="1168" y="459"/>
      <point x="1169" y="468" type="curve" smooth="yes"/>
      <point x="1170" y="479"/>
      <point x="1170" y="483"/>
      <point x="1170" y="489" type="curve" smooth="yes"/>
      <point x="1170" y="509"/>
      <point x="1150" y="520"/>
      <point x="1131" y="520" type="curve" smooth="yes"/>
      <point x="1123" y="520"/>
      <point x="1114" y="519"/>
      <point x="1101" y="516" type="curve" smooth="yes"/>
      <point x="1093" y="514"/>
      <point x="1085" y="513"/>
      <point x="1077" y="513" type="curve" smooth="yes"/>
      <point x="1049" y="513"/>
      <point x="888" y="532"/>
      <point x="847" y="579" type="curve"/>
      <point x="826" y="613"/>
      <point x="804" y="642"/>
      <point x="783" y="642" type="curve" smooth="yes"/>
      <point x="762" y="642"/>
      <point x="741" y="623"/>
      <point x="741" y="604" type="curve" smooth="yes"/>
      <point x="741" y="593"/>
      <point x="745" y="586"/>
      <point x="752" y="578" type="curve" smooth="yes"/>
      <point x="791" y="534"/>
      <point x="803" y="469"/>
      <point x="803" y="403" type="curve" smooth="yes"/>
      <point x="803" y="290"/>
      <point x="778" y="161"/>
      <point x="644" y="82" type="curve"/>
      <point x="574" y="132"/>
      <point x="493" y="202"/>
      <point x="419" y="283" type="curve"/>
      <point x="483" y="353"/>
      <point x="562" y="511"/>
      <point x="562" y="605" type="curve" smooth="yes"/>
      <point x="562" y="634"/>
      <point x="542" y="640"/>
      <point x="511" y="640" type="curve" smooth="yes"/>
      <point x="489" y="640"/>
      <point x="476" y="633"/>
      <point x="473" y="605" type="curve" smooth="yes"/>
      <point x="463" y="510"/>
      <point x="420" y="411"/>
      <point x="362" y="348" type="curve"/>
      <point x="295" y="429"/>
      <point x="234" y="515"/>
      <point x="175" y="607" type="curve" smooth="yes"/>
      <point x="161" y="629"/>
      <point x="151" y="640"/>
      <point x="127" y="640" type="curve" smooth="yes"/>
      <point x="103" y="640"/>
      <point x="78" y="631"/>
      <point x="78" y="605" type="curve" smooth="yes"/>
      <point x="78" y="592"/>
      <point x="89" y="570"/>
      <point x="105" y="547" type="curve" smooth="yes"/>
      <point x="128" y="513"/>
      <point x="147" y="486"/>
      <point x="166" y="459" type="curve"/>
      <point x="70" y="343"/>
      <point x="40" y="262"/>
      <point x="40" y="197" type="curve" smooth="yes"/>
      <point x="40" y="89"/>
      <point x="105" y="37"/>
      <point x="188" y="37" type="curve" smooth="yes"/>
      <point x="241" y="37"/>
      <point x="300" y="55"/>
      <point x="332" y="118" type="curve" smooth="yes"/>
      <point x="336" y="126"/>
      <point x="337" y="129"/>
      <point x="337" y="137" type="curve" smooth="yes"/>
      <point x="337" y="155"/>
      <point x="311" y="178"/>
      <point x="289" y="178" type="curve" smooth="yes"/>
      <point x="275" y="178"/>
      <point x="269" y="170"/>
      <point x="258" y="154" type="curve" smooth="yes"/>
      <point x="245" y="135"/>
      <point x="229" y="113"/>
      <point x="194" y="113" type="curve" smooth="yes"/>
      <point x="146" y="113"/>
      <point x="128" y="154"/>
      <point x="128" y="210" type="curve" smooth="yes"/>
      <point x="128" y="245"/>
      <point x="143" y="306"/>
      <point x="213" y="394" type="curve"/>
      <point x="249" y="346"/>
      <point x="285" y="299"/>
      <point x="336" y="246" type="curve" smooth="yes"/>
      <point x="428" y="152"/>
      <point x="487" y="94"/>
      <point x="548" y="46" type="curve" smooth="yes"/>
      <point x="597" y="8"/>
      <point x="620" y="-4"/>
      <point x="644" y="-4" type="curve" smooth="yes"/>
      <point x="667" y="-4"/>
      <point x="686" y="6"/>
      <point x="708" y="20" type="curve" smooth="yes"/>
      <point x="827" y="96"/>
      <point x="884" y="243"/>
      <point x="884" y="387" type="curve" smooth="yes"/>
      <point x="884" y="425"/>
      <point x="882" y="451"/>
      <point x="877" y="476" type="curve"/>
      <point x="948" y="448"/>
      <point x="1032" y="436"/>
      <point x="1084" y="436" type="curve"/>
      <point x="1084" y="429" type="line" smooth="yes"/>
      <point x="1084" y="373"/>
      <point x="1111" y="318"/>
      <point x="1138" y="267" type="curve" smooth="yes"/>
      <point x="1160" y="225"/>
      <point x="1180" y="186"/>
      <point x="1180" y="143" type="curve" smooth="yes"/>
      <point x="1180" y="87"/>
      <point x="1142" y="66"/>
      <point x="1099" y="66" type="curve" smooth="yes"/>
      <point x="1062" y="66"/>
      <point x="1028" y="82"/>
      <point x="1004" y="120" type="curve" smooth="yes"/>
      <point x="997" y="131"/>
      <point x="992" y="136"/>
      <point x="978" y="136" type="curve" smooth="yes"/>
      <point x="961" y="136"/>
      <point x="926" y="121"/>
      <point x="926" y="96" type="curve" smooth="yes"/>
      <point x="926" y="54"/>
      <point x="984" y="-10"/>
    </contour>
  </outline>
</glyph>
<glyph name="u1086E10864" format="2">
  <advance width="937"/>
  <outline>
    <contour>
      <point x="702" y="-35" type="curve" smooth="yes"/>
      <point x="804" y="-35"/>
      <point x="876" y="23"/>
      <point x="876" y="149" type="curve" smooth="yes"/>
      <point x="876" y="231"/>
      <point x="858" y="286"/>
      <point x="834" y="353" type="curve" smooth="yes"/>
      <point x="809" y="424"/>
      <point x="783" y="500"/>
      <point x="783" y="609" type="curve" smooth="yes"/>
      <point x="783" y="633"/>
      <point x="766" y="640"/>
      <point x="744" y="640" type="curve" smooth="yes"/>
      <point x="705" y="640"/>
      <point x="695" y="624"/>
      <point x="695" y="591" type="curve" smooth="yes"/>
      <point x="695" y="491"/>
      <point x="722" y="414"/>
      <point x="747" y="343" type="curve" smooth="yes"/>
      <point x="769" y="280"/>
      <point x="789" y="221"/>
      <point x="789" y="149" type="curve" smooth="yes"/>
      <point x="789" y="77"/>
      <point x="762" y="41"/>
      <point x="702" y="41" type="curve" smooth="yes"/>
      <point x="650" y="41"/>
      <point x="624" y="60"/>
      <point x="597" y="127" type="curve" smooth="yes"/>
      <point x="566" y="204"/>
      <point x="539" y="284"/>
      <point x="518" y="375" type="curve" smooth="yes"/>
      <point x="500" y="451"/>
      <point x="497" y="520"/>
      <point x="497" y="601" type="curve" smooth="yes"/>
      <point x="497" y="630"/>
      <point x="493" y="640"/>
      <point x="456" y="640" type="curve" smooth="yes"/>
      <point x="412" y="640"/>
      <point x="410" y="626"/>
      <point x="410" y="558" type="curve" smooth="yes"/>
      <point x="410" y="502"/>
      <point x="417" y="443"/>
      <point x="429" y="385" type="curve"/>
      <point x="344" y="404"/>
      <point x="209" y="461"/>
      <point x="77" y="593" type="curve" smooth="yes"/>
      <point x="67" y="603"/>
      <point x="58" y="607"/>
      <point x="48" y="607" type="curve" smooth="yes"/>
      <point x="24" y="607"/>
      <point x="0" y="584"/>
      <point x="0" y="562" type="curve" smooth="yes"/>
      <point x="0" y="549"/>
      <point x="11" y="533"/>
      <point x="26" y="517" type="curve" smooth="yes"/>
      <point x="125" y="411"/>
      <point x="296" y="328"/>
      <point x="446" y="300" type="curve"/>
      <point x="287" y="247"/>
      <point x="177" y="57"/>
      <point x="177" y="25" type="curve" smooth="yes"/>
      <point x="177" y="2"/>
      <point x="202" y="-6"/>
      <point x="225" y="-6" type="curve" smooth="yes"/>
      <point x="242" y="-6"/>
      <point x="256" y="-1"/>
      <point x="262" y="12" type="curve" smooth="yes"/>
      <point x="291" y="74"/>
      <point x="377" y="192"/>
      <point x="472" y="224" type="curve"/>
      <point x="491" y="165"/>
      <point x="513" y="107"/>
      <point x="524" y="81" type="curve" smooth="yes"/>
      <point x="560" y="-1"/>
      <point x="607" y="-35"/>
    </contour>
  </outline>
</glyph>
<glyph name="u1086E10865" format="2">
  <advance width="817"/>
  <outline>
    <contour>
      <point x="543" y="-35" type="curve" smooth="yes"/>
      <point x="669" y="-35"/>
      <point x="756" y="23"/>
      <point x="756" y="149" type="curve" smooth="yes"/>
      <point x="756" y="231"/>
      <point x="738" y="286"/>
      <point x="714" y="353" type="curve" smooth="yes"/>
      <point x="689" y="424"/>
      <point x="663" y="500"/>
      <point x="663" y="609" type="curve" smooth="yes"/>
      <point x="663" y="633"/>
      <point x="646" y="640"/>
      <point x="624" y="640" type="curve" smooth="yes"/>
      <point x="585" y="640"/>
      <point x="575" y="624"/>
      <point x="575" y="591" type="curve" smooth="yes"/>
      <point x="575" y="491"/>
      <point x="602" y="414"/>
      <point x="627" y="343" type="curve" smooth="yes"/>
      <point x="649" y="280"/>
      <point x="669" y="221"/>
      <point x="669" y="149" type="curve" smooth="yes"/>
      <point x="669" y="77"/>
      <point x="630" y="41"/>
      <point x="545" y="41" type="curve" smooth="yes"/>
      <point x="489" y="41"/>
      <point x="460" y="67"/>
      <point x="448" y="135" type="curve" smooth="yes"/>
      <point x="388" y="480" type="line" smooth="yes"/>
      <point x="369" y="590"/>
      <point x="322" y="650"/>
      <point x="181" y="650" type="curve" smooth="yes"/>
      <point x="46" y="650"/>
      <point x="0" y="594"/>
      <point x="0" y="527" type="curve" smooth="yes"/>
      <point x="0" y="463"/>
      <point x="27" y="427"/>
      <point x="58" y="427" type="curve" smooth="yes"/>
      <point x="75" y="427"/>
      <point x="96" y="439"/>
      <point x="96" y="459" type="curve" smooth="yes"/>
      <point x="96" y="468"/>
      <point x="93" y="478"/>
      <point x="89" y="489" type="curve" smooth="yes"/>
      <point x="86" y="498"/>
      <point x="84" y="507"/>
      <point x="84" y="521" type="curve" smooth="yes"/>
      <point x="84" y="547"/>
      <point x="99" y="574"/>
      <point x="184" y="574" type="curve" smooth="yes"/>
      <point x="267" y="574"/>
      <point x="291" y="533"/>
      <point x="303" y="462" type="curve" smooth="yes"/>
      <point x="363" y="113" type="line" smooth="yes"/>
      <point x="379" y="21"/>
      <point x="430" y="-35"/>
    </contour>
  </outline>
</glyph>
<glyph name="u1086E10876" format="2">
  <advance width="967"/>
  <outline>
    <contour>
      <point x="728" y="-35" type="curve" smooth="yes"/>
      <point x="835" y="-35"/>
      <point x="907" y="23"/>
      <point x="907" y="149" type="curve" smooth="yes"/>
      <point x="907" y="231"/>
      <point x="888" y="286"/>
      <point x="864" y="353" type="curve" smooth="yes"/>
      <point x="839" y="424"/>
      <point x="813" y="500"/>
      <point x="813" y="609" type="curve" smooth="yes"/>
      <point x="813" y="633"/>
      <point x="796" y="640"/>
      <point x="774" y="640" type="curve" smooth="yes"/>
      <point x="735" y="640"/>
      <point x="725" y="624"/>
      <point x="725" y="591" type="curve" smooth="yes"/>
      <point x="725" y="491"/>
      <point x="752" y="414"/>
      <point x="777" y="343" type="curve" smooth="yes"/>
      <point x="799" y="280"/>
      <point x="819" y="221"/>
      <point x="819" y="149" type="curve" smooth="yes"/>
      <point x="819" y="77"/>
      <point x="792" y="41"/>
      <point x="729" y="41" type="curve" smooth="yes"/>
      <point x="676" y="41"/>
      <point x="648" y="67"/>
      <point x="636" y="131" type="curve" smooth="yes"/>
      <point x="610" y="266" type="line" smooth="yes"/>
      <point x="589" y="375"/>
      <point x="565" y="485"/>
      <point x="439" y="485" type="curve" smooth="yes"/>
      <point x="360" y="485"/>
      <point x="299" y="430"/>
      <point x="254" y="377" type="curve"/>
      <point x="234" y="450"/>
      <point x="217" y="528"/>
      <point x="214" y="608" type="curve" smooth="yes"/>
      <point x="213" y="631"/>
      <point x="202" y="640"/>
      <point x="175" y="640" type="curve" smooth="yes"/>
      <point x="138" y="640"/>
      <point x="125" y="627"/>
      <point x="125" y="602" type="curve" smooth="yes"/>
      <point x="125" y="548"/>
      <point x="148" y="446"/>
      <point x="173" y="347" type="curve" smooth="yes"/>
      <point x="196" y="255"/>
      <point x="216" y="166"/>
      <point x="216" y="121" type="curve" smooth="yes"/>
      <point x="216" y="77"/>
      <point x="183" y="64"/>
      <point x="157" y="64" type="curve" smooth="yes"/>
      <point x="128" y="64"/>
      <point x="105" y="77"/>
      <point x="92" y="87" type="curve" smooth="yes"/>
      <point x="83" y="94"/>
      <point x="76" y="98"/>
      <point x="67" y="98" type="curve" smooth="yes"/>
      <point x="49" y="98"/>
      <point x="30" y="77"/>
      <point x="30" y="55" type="curve" smooth="yes"/>
      <point x="30" y="22"/>
      <point x="78" y="-12"/>
      <point x="153" y="-12" type="curve" smooth="yes"/>
      <point x="269" y="-12"/>
      <point x="304" y="53"/>
      <point x="304" y="119" type="curve" smooth="yes"/>
      <point x="304" y="166"/>
      <point x="290" y="226"/>
      <point x="275" y="288" type="curve"/>
      <point x="310" y="339"/>
      <point x="379" y="409"/>
      <point x="433" y="409" type="curve" smooth="yes"/>
      <point x="484" y="409"/>
      <point x="505" y="358"/>
      <point x="526" y="250" type="curve" smooth="yes"/>
      <point x="552" y="113" type="line" smooth="yes"/>
      <point x="569" y="21"/>
      <point x="617" y="-35"/>
    </contour>
  </outline>
</glyph>
<glyph name="u108711086B" format="2">
  <advance width="948"/>
  <outline>
    <contour>
      <point x="289" y="-10" type="curve" smooth="yes"/>
      <point x="387" y="-10"/>
      <point x="470" y="48"/>
      <point x="470" y="158" type="curve" smooth="yes"/>
      <point x="470" y="225"/>
      <point x="420" y="406"/>
      <point x="332" y="406" type="curve" smooth="yes"/>
      <point x="305" y="406"/>
      <point x="289" y="395"/>
      <point x="258" y="373" type="curve" smooth="yes"/>
      <point x="233" y="355"/>
      <point x="206" y="338"/>
      <point x="178" y="338" type="curve" smooth="yes"/>
      <point x="147" y="338"/>
      <point x="134" y="371"/>
      <point x="124" y="468" type="curve" smooth="yes"/>
      <point x="115" y="558"/>
      <point x="109" y="681"/>
      <point x="109" y="746" type="curve" smooth="yes"/>
      <point x="109" y="769"/>
      <point x="97" y="778"/>
      <point x="64" y="778" type="curve" smooth="yes"/>
      <point x="37" y="778"/>
      <point x="20" y="771"/>
      <point x="20" y="746" type="curve" smooth="yes"/>
      <point x="20" y="705"/>
      <point x="30" y="557"/>
      <point x="39" y="464" type="curve" smooth="yes"/>
      <point x="52" y="328"/>
      <point x="78" y="262"/>
      <point x="169" y="262" type="curve" smooth="yes"/>
      <point x="213" y="262"/>
      <point x="254" y="281"/>
      <point x="278" y="299" type="curve" smooth="yes"/>
      <point x="294" y="311"/>
      <point x="305" y="318"/>
      <point x="314" y="318" type="curve" smooth="yes"/>
      <point x="345" y="318"/>
      <point x="382" y="219"/>
      <point x="382" y="165" type="curve" smooth="yes"/>
      <point x="382" y="109"/>
      <point x="358" y="66"/>
      <point x="270" y="66" type="curve" smooth="yes"/>
      <point x="256" y="66"/>
      <point x="248" y="67"/>
      <point x="241" y="68" type="curve" smooth="yes"/>
      <point x="235" y="69"/>
      <point x="229" y="70"/>
      <point x="223" y="70" type="curve" smooth="yes"/>
      <point x="203" y="70"/>
      <point x="195" y="58"/>
      <point x="195" y="37" type="curve" smooth="yes"/>
      <point x="195" y="0"/>
      <point x="219" y="-10"/>
    </contour>
    <contour>
      <point x="630" y="-2" type="curve" smooth="yes"/>
      <point x="839" y="-2"/>
      <point x="888" y="37"/>
      <point x="888" y="109" type="curve" smooth="yes"/>
      <point x="888" y="129"/>
      <point x="882" y="151"/>
      <point x="869" y="197" type="curve" smooth="yes"/>
      <point x="860" y="230"/>
      <point x="849" y="273"/>
      <point x="838" y="326" type="curve" smooth="yes"/>
      <point x="826" y="384"/>
      <point x="818" y="467"/>
      <point x="815" y="552" type="curve" smooth="yes"/>
      <point x="812" y="629"/>
      <point x="777" y="640"/>
      <point x="653" y="640" type="curve" smooth="yes"/>
      <point x="590" y="640"/>
      <point x="559" y="638"/>
      <point x="525" y="631" type="curve" smooth="yes"/>
      <point x="515" y="629"/>
      <point x="505" y="627"/>
      <point x="498" y="627" type="curve" smooth="yes"/>
      <point x="485" y="627"/>
      <point x="480" y="630"/>
      <point x="473" y="635" type="curve" smooth="yes"/>
      <point x="464" y="641"/>
      <point x="458" y="644"/>
      <point x="446" y="644" type="curve" smooth="yes"/>
      <point x="427" y="644"/>
      <point x="404" y="632"/>
      <point x="404" y="604" type="curve" smooth="yes"/>
      <point x="404" y="593"/>
      <point x="410" y="551"/>
      <point x="441" y="457" type="curve" smooth="yes"/>
      <point x="478" y="344"/>
      <point x="493" y="337"/>
      <point x="521" y="337" type="curve" smooth="yes"/>
      <point x="536" y="337"/>
      <point x="559" y="348"/>
      <point x="559" y="369" type="curve" smooth="yes"/>
      <point x="559" y="389"/>
      <point x="550" y="412"/>
      <point x="539" y="440" type="curve" smooth="yes"/>
      <point x="525" y="475"/>
      <point x="513" y="512"/>
      <point x="513" y="528" type="curve" smooth="yes"/>
      <point x="513" y="553"/>
      <point x="534" y="564"/>
      <point x="606" y="564" type="curve" smooth="yes"/>
      <point x="732" y="564"/>
      <point x="735" y="562"/>
      <point x="737" y="512" type="curve" smooth="yes"/>
      <point x="739" y="460"/>
      <point x="744" y="383"/>
      <point x="758" y="311" type="curve" smooth="yes"/>
      <point x="765" y="276"/>
      <point x="774" y="241"/>
      <point x="782" y="210" type="curve" smooth="yes"/>
      <point x="792" y="173"/>
      <point x="800" y="142"/>
      <point x="800" y="126" type="curve" smooth="yes"/>
      <point x="800" y="83"/>
      <point x="745" y="74"/>
      <point x="634" y="74" type="curve" smooth="yes"/>
      <point x="575" y="74"/>
      <point x="496" y="80"/>
      <point x="453" y="85" type="curve" smooth="yes"/>
      <point x="415" y="89"/>
      <point x="404" y="90"/>
      <point x="389" y="90" type="curve" smooth="yes"/>
      <point x="367" y="90"/>
      <point x="360" y="75"/>
      <point x="360" y="57" type="curve" smooth="yes"/>
      <point x="360" y="36"/>
      <point x="366" y="18"/>
      <point x="383" y="13" type="curve" smooth="yes"/>
      <point x="424" y="1"/>
      <point x="563" y="-2"/>
    </contour>
  </outline>
</glyph>
<glyph name="u1087310863" format="2">
  <advance width="1297"/>
  <outline>
    <contour>
      <point x="597" y="-17" type="curve" smooth="yes"/>
      <point x="676" y="-17"/>
      <point x="719" y="41"/>
      <point x="719" y="138" type="curve" smooth="yes"/>
      <point x="719" y="193"/>
      <point x="711" y="246"/>
      <point x="701" y="308" type="curve" smooth="yes"/>
      <point x="693" y="359"/>
      <point x="684" y="417"/>
      <point x="678" y="501" type="curve"/>
      <point x="719" y="460"/>
      <point x="791" y="440"/>
      <point x="862" y="440" type="curve" smooth="yes"/>
      <point x="946" y="440"/>
      <point x="1034" y="462"/>
      <point x="1085" y="513" type="curve"/>
      <point x="1097" y="400"/>
      <point x="1122" y="322"/>
      <point x="1142" y="261" type="curve" smooth="yes"/>
      <point x="1157" y="214"/>
      <point x="1169" y="176"/>
      <point x="1169" y="146" type="curve" smooth="yes"/>
      <point x="1169" y="95"/>
      <point x="1146" y="66"/>
      <point x="1102" y="66" type="curve" smooth="yes"/>
      <point x="1073" y="66"/>
      <point x="1052" y="78"/>
      <point x="1035" y="90" type="curve" smooth="yes"/>
      <point x="1025" y="97"/>
      <point x="1016" y="102"/>
      <point x="1006" y="102" type="curve" smooth="yes"/>
      <point x="985" y="102"/>
      <point x="965" y="80"/>
      <point x="965" y="58" type="curve" smooth="yes"/>
      <point x="965" y="27"/>
      <point x="1020" y="-10"/>
      <point x="1097" y="-10" type="curve" smooth="yes"/>
      <point x="1181" y="-10"/>
      <point x="1257" y="39"/>
      <point x="1257" y="142" type="curve" smooth="yes"/>
      <point x="1257" y="189"/>
      <point x="1241" y="236"/>
      <point x="1223" y="286" type="curve" smooth="yes"/>
      <point x="1190" y="378"/>
      <point x="1165" y="452"/>
      <point x="1165" y="605" type="curve" smooth="yes"/>
      <point x="1165" y="631"/>
      <point x="1143" y="640"/>
      <point x="1125" y="640" type="curve" smooth="yes"/>
      <point x="1107" y="640"/>
      <point x="1097" y="629"/>
      <point x="1080" y="608" type="curve" smooth="yes"/>
      <point x="1049" y="570"/>
      <point x="1002" y="514"/>
      <point x="857" y="514" type="curve" smooth="yes"/>
      <point x="761" y="514"/>
      <point x="723" y="556"/>
      <point x="691" y="595" type="curve" smooth="yes"/>
      <point x="671" y="620"/>
      <point x="653" y="640"/>
      <point x="624" y="640" type="curve" smooth="yes"/>
      <point x="599" y="640"/>
      <point x="587" y="627"/>
      <point x="587" y="605" type="curve" smooth="yes"/>
      <point x="587" y="492"/>
      <point x="600" y="391"/>
      <point x="614" y="304" type="curve" smooth="yes"/>
      <point x="624" y="240"/>
      <point x="631" y="185"/>
      <point x="631" y="130" type="curve" smooth="yes"/>
      <point x="631" y="81"/>
      <point x="619" y="59"/>
      <point x="597" y="59" type="curve" smooth="yes"/>
      <point x="561" y="59"/>
      <point x="530" y="132"/>
      <point x="493" y="264" type="curve" smooth="yes"/>
      <point x="457" y="392"/>
      <point x="444" y="494"/>
      <point x="444" y="617" type="curve" smooth="yes"/>
      <point x="444" y="635"/>
      <point x="433" y="640"/>
      <point x="402" y="640" type="curve" smooth="yes"/>
      <point x="377" y="640"/>
      <point x="363" y="632"/>
      <point x="360" y="612" type="curve" smooth="yes"/>
      <point x="358" y="597"/>
      <point x="358" y="568"/>
      <point x="358" y="544" type="curve" smooth="yes"/>
      <point x="358" y="486"/>
      <point x="294" y="452"/>
      <point x="243" y="452" type="curve" smooth="yes"/>
      <point x="155" y="452"/>
      <point x="108" y="506"/>
      <point x="108" y="580" type="curve" smooth="yes"/>
      <point x="108" y="589"/>
      <point x="108" y="595"/>
      <point x="109" y="604" type="curve" smooth="yes"/>
      <point x="110" y="612"/>
      <point x="110" y="614"/>
      <point x="110" y="619" type="curve" smooth="yes"/>
      <point x="110" y="633"/>
      <point x="99" y="640"/>
      <point x="66" y="640" type="curve" smooth="yes"/>
      <point x="26" y="640"/>
      <point x="20" y="616"/>
      <point x="20" y="581" type="curve" smooth="yes"/>
      <point x="20" y="521"/>
      <point x="53" y="376"/>
      <point x="241" y="376" type="curve" smooth="yes"/>
      <point x="292" y="376"/>
      <point x="339" y="389"/>
      <point x="373" y="419" type="curve"/>
      <point x="392" y="299"/>
      <point x="418" y="208"/>
      <point x="446" y="130" type="curve" smooth="yes"/>
      <point x="483" y="25"/>
      <point x="524" y="-17"/>
    </contour>
  </outline>
</glyph>
